<svg xmlns="http://www.w3.org/2000/svg" xmlns:xlink="http://www.w3.org/1999/xlink" width="512" height="512"><defs><linearGradient id="b"><stop offset="0" stop-opacity=".504"/><stop offset="1" stop-color="#d45500" stop-opacity="0"/></linearGradient><linearGradient id="a"><stop offset="0"/><stop offset="1" stop-color="#d45500" stop-opacity="0"/></linearGradient><linearGradient xlink:href="#b" id="c" x1="1105.872" y1="1112.406" x2="1505.471" y2="1512.005" gradientUnits="userSpaceOnUse" gradientTransform="matrix(.46112 0 0 .46112 -271.114 -267.894)"/></defs><path d="M512 256c0 141.385-114.615 256-256 256S0 397.385 0 256 114.615 0 256 0s256 114.615 256 256z" fill="#2185d0"/><path d="M254.15 135.287L73.53 192.063l14.526 14.525-14.526-4.54 80.063 80.064-1.037 18.142 194.91 194.91c93.29-35.7 160.362-124.397 164.348-229.264l-73.837-73.837-180.603-56.776 93.982 93.983-2.465.778-94.746-94.76zM110.306 307.2l-9.352 69.817 5.807 5.807h-.648l128.264 128.264c7.13.597 14.333.908 21.615.908 24.832 0 48.843-3.535 71.547-10.13L132.873 307.2l3.488 26.053-26.053-26.053z" fill="url(#c)" opacity=".6"/><path d="M356.06 249.303l2.903 50.957q.645 11.127-13.224 20.64-13.87 9.516-37.896 15.08-24.027 5.562-52.086 5.562-28.06 0-52.086-5.563-24.028-5.564-37.896-15.08-13.868-9.513-13.223-20.64l2.903-50.957 92.56 29.188q3.55 1.13 7.742 1.13t7.74-1.13zm85.466-52.247q0 3.708-3.547 5l-180.61 56.76q-.645.162-1.612.162-.968 0-1.613-.16l-105.14-33.22q-6.934 5.483-11.45 17.98-4.514 12.498-5.482 28.785 10.16 5.805 10.16 17.577 0 11.127-9.354 17.254l9.352 69.825q.323 2.257-1.29 4.03-1.45 1.774-3.87 1.774h-30.96q-2.42 0-3.87-1.774-1.614-1.773-1.29-4.03l9.35-69.826q-9.35-6.127-9.35-17.254 0-11.772 10.48-17.9 1.774-33.38 15.803-53.215l-53.698-16.77q-3.548-1.29-3.548-5 0-3.708 3.547-4.998l180.608-56.763q.645-.16 1.613-.16.967 0 1.612.16l180.61 56.763q3.546 1.29 3.546 5z"/><path d="M356.06 249.303l2.903 50.957q.645 11.127-13.224 20.64-13.87 9.516-37.896 15.08-24.027 5.562-52.086 5.562-28.06 0-52.086-5.563-24.028-5.564-37.896-15.08-13.868-9.513-13.223-20.64l2.903-50.957 92.56 29.188q3.55 1.13 7.742 1.13t7.74-1.13zm85.466-52.247q0 3.708-3.547 5l-180.61 56.76q-.645.162-1.612.162-.968 0-1.613-.16l-105.14-33.22q-6.934 5.483-11.45 17.98-4.514 12.498-5.482 28.785 10.16 5.805 10.16 17.577 0 11.127-9.353 17.254l9.352 69.825q.323 2.257-1.29 4.03-1.45 1.774-3.87 1.774h-30.96q-2.42 0-3.87-1.774-1.614-1.773-1.29-4.03l9.35-69.826q-9.35-6.127-9.35-17.254 0-11.772 10.48-17.9 1.774-33.38 15.803-53.215l-53.698-16.77q-3.548-1.29-3.548-5 0-3.708 3.547-4.998l180.608-56.763q.645-.16 1.613-.16.967 0 1.612.16l180.61 56.763q3.546 1.29 3.546 5z" fill="#fff" stroke="#fff" stroke-width=".8"/></svg>